<?xml version="1.0" encoding="utf-8"?>
<!-- Generator: Adobe Illustrator 23.0.1, SVG Export Plug-In . SVG Version: 6.00 Build 0)  -->
<svg version="1.1" id="图层_1" xmlns="http://www.w3.org/2000/svg" xmlns:xlink="http://www.w3.org/1999/xlink" x="0px" y="0px"
	 viewBox="0 0 56 56" style="enable-background:new 0 0 56 56;" xml:space="preserve">
<style type="text/css">
	.st0{fill:#FFFFFF;}
	.st1{fill:#FF2D55;}
</style>
<path class="st0" d="M31.1,10.4L10.8,8.7c-1.2-0.1-2.3,0.9-2.2,2.2l1.7,20.3c0,0.3,0.1,0.5,0.3,0.7l21.2,21.2c1.2,1.2,3,1.1,4.2,0
	l17-17c1.2-1.2,1.2-3.1,0-4.2L31.8,10.7C31.6,10.5,31.4,10.4,31.1,10.4z M19.9,19.9c-1.2,1.2-3.1,1.2-4.2,0c-1.2-1.2-1.1-3,0-4.2
	s3.1-1.2,4.2,0C21.1,16.9,21,18.8,19.9,19.9z"/>
<path class="st1" d="M30.5,8.6L10.2,6.9C9,6.8,7.9,7.8,8,9.1l1.7,20.3c0,0.3,0.1,0.5,0.3,0.7l21.2,21.2c1.2,1.2,3,1.1,4.2,0l17-17
	c1.2-1.2,1.2-3.1,0-4.2L31.2,8.9C31,8.7,30.8,8.6,30.5,8.6z M19.3,18.1c-1.2,1.2-3.1,1.2-4.2,0c-1.2-1.2-1.1-3,0-4.2s3.1-1.2,4.2,0
	C20.5,15.1,20.5,17,19.3,18.1z"/>
<path class="st0" d="M17.5,17.6c-0.8,0.8-2,0.8-2.8,0L4.1,7c-0.8-0.8-0.8-2,0-2.8s2-0.8,2.8,0l10.6,10.6
	C18.3,15.5,18.3,16.8,17.5,17.6z"/>
<path class="st1" d="M17.7,16.5c-0.8,0.8-2,0.8-2.8,0L4.2,5.9c-0.8-0.8-0.8-2,0-2.8s2-0.8,2.8,0l10.6,10.6
	C18.4,14.5,18.4,15.7,17.7,16.5z"/>
</svg>
